<svg width="960" height="640" viewBox="0 0 960 640" xmlns="http://www.w3.org/2000/svg" role="img" aria-label="Stage illustration">
  <defs>
    <linearGradient id="bg" x1="0" y1="0" x2="1" y2="1">
      <stop offset="0%" stop-color="#3B82F6"/>
      <stop offset="100%" stop-color="#7C3AED"/>
    </linearGradient>
    <linearGradient id="panel" x1="0" y1="0" x2="0" y2="1">
      <stop offset="0%" stop-color="#FFFFFF" stop-opacity="0.95"/>
      <stop offset="100%" stop-color="#E2E8F0" stop-opacity="0.9"/>
    </linearGradient>
  </defs>

  <rect x="0" y="0" width="960" height="640" fill="none"/>
  <ellipse cx="500" cy="560" rx="320" ry="52" fill="#0F172A" opacity="0.25"/>
  <rect x="190" y="330" width="620" height="200" rx="24" fill="url(#bg)"/>
  <rect x="250" y="170" width="460" height="280" rx="22" fill="url(#panel)"/>
  <rect x="285" y="210" width="390" height="190" rx="14" fill="#0F172A"/>
  <rect x="315" y="244" width="300" height="10" rx="5" fill="#60A5FA"/>
  <rect x="315" y="268" width="220" height="10" rx="5" fill="#C084FC"/>
  <rect x="315" y="292" width="258" height="10" rx="5" fill="#F472B6"/>
  <circle cx="222" cy="248" r="24" fill="#22C55E"/>
  <circle cx="740" cy="248" r="24" fill="#F59E0B"/>
  <rect x="420" y="454" width="122" height="24" rx="12" fill="#F8FAFC" opacity="0.9"/>
  <path d="M478 449 L504 410 L530 449 Z" fill="#F8FAFC" opacity="0.9"/>
</svg>
